<?xml version="1.0" standalone="no"?>
<!DOCTYPE svg PUBLIC "-//W3C//DTD SVG 20010904//EN"
 "http://www.w3.org/TR/2001/REC-SVG-20010904/DTD/svg10.dtd">
<svg version="1.0" xmlns="http://www.w3.org/2000/svg"
 width="1009.000000pt" height="1280.000000pt" viewBox="0 0 1009.000000 1280.000000"
 preserveAspectRatio="xMidYMid meet">
<g transform="translate(0.000000,1280.000000) scale(0.100000,-0.100000)"
fill="#000000" stroke="none">
<path d="M3015 12790 c-16 -4 -61 -13 -100 -20 -394 -73 -715 -374 -828 -778
-18 -66 -21 -104 -21 -267 0 -179 2 -195 27 -280 58 -190 153 -349 285 -477
519 -502 1367 -359 1690 287 172 344 142 761 -77 1078 -92 132 -250 271 -391
342 -175 89 -466 146 -585 115z"/>
<path d="M2980 10274 c-82 -17 -207 -78 -287 -138 -148 -112 -243 -285 -243
-443 0 -63 401 -4325 416 -4418 30 -190 155 -359 330 -445 128 -63 34 -60
1909 -60 941 0 1715 -4 1721 -8 6 -4 221 -695 478 -1537 305 -1002 478 -1555
502 -1603 95 -194 342 -336 554 -319 107 9 1239 215 1325 242 198 61 331 207
384 424 27 107 26 144 -3 263 -57 228 -186 378 -381 443 -126 42 -209 38 -580
-29 -170 -31 -321 -56 -335 -54 -24 3 -39 48 -476 1483 -289 948 -464 1508
-488 1558 -69 145 -222 270 -382 312 -51 13 -254 15 -1644 15 -1254 0 -1590 3
-1602 13 -13 9 -21 67 -40 272 -14 143 -23 266 -20 273 3 9 197 12 923 12 802
0 930 2 997 16 222 46 401 214 457 431 21 80 19 233 -3 314 -54 193 -207 347
-412 415 -52 17 -119 19 -1067 22 l-1013 3 -4 22 c-3 12 -10 74 -15 137 -6 63
-49 519 -96 1012 -89 945 -90 952 -149 1052 -85 146 -277 278 -463 320 -87 19
-205 19 -293 0z"/>
<path d="M1914 7374 c-407 -247 -815 -617 -1106 -1006 -451 -602 -706 -1263
-783 -2028 -33 -326 -32 -399 11 -805 197 -1821 1690 -3309 3509 -3499 83 -9
191 -20 242 -26 169 -18 267 -14 638 26 838 92 1646 464 2256 1041 221 208
476 500 465 530 -6 15 -462 1504 -478 1560 -5 18 -11 33 -13 33 -2 0 -16 -37
-31 -82 -104 -316 -274 -631 -480 -888 -153 -190 -392 -409 -604 -552 -626
-423 -1417 -572 -2163 -408 -421 93 -853 306 -1182 583 -740 623 -1103 1589
-959 2551 90 603 386 1173 827 1593 l97 92 -35 368 c-74 764 -95 976 -98 980
-2 2 -53 -26 -113 -63z"/>
</g>
</svg>
